<svg width="107" height="20" viewBox="0 0 107 20" fill="none" xmlns="http://www.w3.org/2000/svg">
<path d="M0.2 19V2.272H3.632L9.68 10.192L15.68 2.272H19.136V19H15.728V2.896L9.68 10.864L3.608 2.896V19H0.2ZM21.8161 19V7H25.2241V19H21.8161ZM23.4961 4.576C22.4161 4.576 21.5281 3.712 21.5281 2.608C21.5281 1.528 22.4161 0.663999 23.4961 0.663999C24.5761 0.663999 25.4641 1.528 25.4641 2.608C25.4641 3.712 24.5761 4.576 23.4961 4.576ZM27.4963 13.024C27.4963 8.8 31.1443 6.616 35.0803 6.616C38.9922 6.616 42.6643 8.8 42.6643 13.024C42.6643 17.224 38.9922 19.384 35.0803 19.384C31.1443 19.384 27.4963 17.224 27.4963 13.024ZM35.0803 6.976C32.1043 6.976 31.0003 8.872 31.0003 13.024C31.0003 17.104 31.8163 19.024 35.0803 19.024C38.2483 19.024 39.1603 17.104 39.1603 13.024C39.1603 8.872 38.0803 6.976 35.0803 6.976ZM44.7078 19.024V0.688H48.1158C48.1158 0.688 48.1158 7.312 48.1158 7.528C48.7878 7.192 50.1318 6.616 52.1478 6.616C56.0838 6.616 59.8518 7.528 59.8518 12.856C59.8518 17.992 57.0438 19.384 53.5878 19.384C50.8998 19.384 49.6278 18.064 48.5958 15.04C48.3558 14.344 48.2358 13.6 48.1158 12.88V19.024H44.7078ZM48.1158 7.888C48.1878 11.08 48.5238 19 53.0358 19C55.6278 19 56.3478 16.336 56.3478 12.832C56.3478 7.768 54.5718 6.952 51.5958 6.952C49.5798 6.952 48.7638 7.576 48.1158 7.888ZM61.5275 13.024C61.5275 8.8 65.1755 6.616 69.1115 6.616C73.0235 6.616 76.6955 8.8 76.6955 13.024C76.6955 17.224 73.0235 19.384 69.1115 19.384C65.1755 19.384 61.5275 17.224 61.5275 13.024ZM69.1115 6.976C66.1355 6.976 65.0315 8.872 65.0315 13.024C65.0315 17.104 65.8475 19.024 69.1115 19.024C72.2795 19.024 73.1915 17.104 73.1915 13.024C73.1915 8.872 72.1115 6.976 69.1115 6.976ZM78.1263 15.208L81.1743 14.704C81.1743 17.656 81.7503 19 84.3903 19C87.8223 19 88.7343 18.232 88.7343 16.36C88.7343 15.04 87.4863 14.68 83.4543 13.96C79.8063 13.312 78.6303 12.16 78.6303 10C78.6303 7.72 80.7183 6.616 83.6463 6.616C88.2303 6.616 89.4783 8.752 89.4783 11.8L87.1743 11.992C89.0463 12.496 90.1503 13.576 90.1503 15.496C90.1503 18.4 88.1103 19.36 84.3903 19.36C80.3823 19.36 78.1263 18.448 78.1263 15.208ZM83.6463 6.952C81.5343 6.952 79.8303 7.6 79.8303 9.112C79.8303 10.312 80.6223 10.744 83.6463 11.272C84.7503 11.464 86.5743 11.8 86.5743 11.824C86.5743 8.8 86.5743 6.952 83.6463 6.952ZM97.7071 19.384C94.4911 19.384 92.0431 18.568 92.0431 14.632C92.0431 12.424 93.5791 11.056 95.5711 10.624L93.0751 9.424C93.8191 8.2 95.7391 6.616 100.083 6.616C102.987 6.616 106.587 7.336 106.587 11.488V19H103.179V12.976L103.131 13.264C102.603 16.408 101.475 19.384 97.7071 19.384ZM98.4751 10.768C96.5311 10.768 95.5471 11.872 95.5471 14.872C95.5471 18.016 96.2671 19 97.6831 19C102.099 19 102.771 14.224 103.059 10.768H98.4751ZM96.5311 10.456C96.8911 10.408 97.2751 10.384 97.6831 10.384H103.107C103.107 7.936 102.963 6.904 99.9391 6.904C97.3471 6.904 96.5311 9.88 96.5311 10.456Z" fill="#7E6E4F"/>
</svg>
